<svg width="33" height="32" viewBox="0 0 33 32" fill="none" xmlns="http://www.w3.org/2000/svg">
<path d="M14.5325 0C6.5195 0 0 6.32194 0 14.0921C0 21.8627 6.5195 28.1842 14.5325 28.1842C22.546 28.1842 29.065 21.8627 29.065 14.0921C29.065 6.32194 22.546 0 14.5325 0ZM14.5325 25.5827C7.9987 25.5827 2.68293 20.428 2.68293 14.0922C2.68293 7.75637 7.9987 2.60162 14.5325 2.60162C21.0663 2.60162 26.3821 7.75631 26.3821 14.0921C26.3821 20.4279 21.0663 25.5827 14.5325 25.5827Z" fill="black"/>
<path d="M32.6069 29.7795L24.9159 22.3215C24.3918 21.8133 23.5431 21.8133 23.019 22.3215C22.495 22.8293 22.495 23.6531 23.019 24.1609L30.7101 31.6189C30.9721 31.8729 31.3151 32 31.6585 32C32.0015 32 32.3449 31.8729 32.6069 31.6189C33.131 31.1111 33.131 30.2873 32.6069 29.7795Z" fill="black"/>
</svg>
